<?xml version="1.0" encoding="UTF-8"?>
<svg version="1.1" xmlns="http://www.w3.org/2000/svg" width="352" height="710">
<path d="M0 0 C8.80515789 -0.11361494 17.56209791 0.49679365 26.33496094 1.17382812 C27.14555969 1.23585419 27.95615845 1.29788025 28.7913208 1.36178589 C43.21376319 2.50505208 56.7914379 5.01321007 70.70996094 9.04882812 C71.94875 9.37367187 73.18753906 9.69851563 74.46386719 10.03320312 C78.59036167 11.32428443 82.25955982 13.19501394 86.09082031 15.17700195 C86.70892578 15.49564209 87.32703125 15.81428223 87.96386719 16.14257812 C88.89610107 16.62404297 88.89610107 16.62404297 89.84716797 17.11523438 C91.62124272 18.00436437 93.42891481 18.82549831 95.23730469 19.64257812 C104.82392267 24.04228582 112.05853449 29.87879968 119.70996094 37.04882812 C120.47824219 37.75910156 121.24652344 38.469375 122.03808594 39.20117188 C124.57590805 41.63769437 126.53772318 43.75734885 128.33496094 46.79882812 C129.56346385 49.20303873 129.56346385 49.20303873 131.99902344 50.40820312 C147.21766544 59.61833229 153.60063314 79.40013293 157.73730469 95.70507812 C159.88802453 105.1210583 161.03143443 114.09835241 161.15917969 123.76757812 C161.19178642 125.53627258 161.19178642 125.53627258 161.22505188 127.34069824 C161.26869871 129.81804281 161.30795736 132.29546825 161.34301758 134.77294922 C161.39731016 138.53837127 161.46760473 142.3032472 161.54003906 146.06835938 C161.58070277 148.48891652 161.62044704 150.90948931 161.65917969 153.33007812 C161.69032112 154.99774231 161.69032112 154.99774231 161.72209167 156.69909668 C161.85163955 166.81157767 161.33875948 176.26924977 158.20996094 185.92382812 C155.967076 193.07542695 154.56466669 199.35135653 154.50463867 206.8684082 C154.49473907 207.63967041 154.48483948 208.41093262 154.47463989 209.20556641 C154.44316896 211.74313333 154.41832472 214.28071894 154.39355469 216.81835938 C154.3729727 218.58241754 154.35197591 220.34647091 154.33058167 222.11051941 C154.27548948 226.74482328 154.22602371 231.37917072 154.17773438 236.0135498 C154.1274253 240.74605163 154.07178841 245.47849049 154.01660156 250.2109375 C153.90917728 259.49018054 153.80769761 268.76947834 153.70996094 278.04882812 C154.31006989 278.17480377 154.91017883 278.30077942 155.5284729 278.43057251 C156.3252243 278.6018869 157.12197571 278.77320129 157.94287109 278.94970703 C159.12147202 279.2005455 159.12147202 279.2005455 160.32388306 279.45645142 C164.08474393 280.39013694 167.55088795 281.85613227 171.08496094 283.42382812 C172.13103516 283.86082031 172.13103516 283.86082031 173.19824219 284.30664062 C176.98372576 285.9632438 179.83380968 287.26831281 181.70996094 291.04882812 C182.03808594 293.55664062 182.03808594 293.55664062 181.95996094 296.17382812 C181.94449219 297.04265625 181.92902344 297.91148437 181.91308594 298.80664062 C181.70996094 301.04882812 181.70996094 301.04882812 180.70996094 303.04882812 C174.58544543 302.60340882 168.81647861 301.43941644 162.86230469 300.00195312 C162.07658081 299.81455566 161.29085693 299.6271582 160.48132324 299.43408203 C158.5569567 298.97475015 156.63337744 298.51212213 154.70996094 298.04882812 C154.6387636 314.07386113 154.58644686 330.09884903 154.55452442 346.12400246 C154.53928511 353.57067917 154.51857084 361.01725472 154.48364258 368.46386719 C154.33404171 401.0203708 154.6246631 433.34318564 157.17343903 465.8252306 C158.14502973 478.36101078 158.52365341 490.92034521 158.89746094 503.48632812 C158.93665649 504.73583252 158.97585205 505.98533691 159.01623535 507.27270508 C161.01521038 571.38167742 161.01521038 571.38167742 157.70996094 592.04882812 C157.41871338 593.9447168 157.41871338 593.9447168 157.12158203 595.87890625 C153.91270584 616.51344708 149.52958094 636.79414736 144.45996094 657.04882812 C144.19797913 658.09969604 143.93599731 659.15056396 143.66607666 660.23327637 C142.91333624 663.23657925 142.15024948 666.23700066 141.38183594 669.23632812 C141.15702545 670.12636536 140.93221497 671.01640259 140.70059204 671.93341064 C137.34316763 684.82903967 137.34316763 684.82903967 132.59277344 688.37695312 C131.35166668 689.03957792 130.09846131 689.6799708 128.83496094 690.29882812 C128.24199219 690.62367188 127.64902344 690.94851563 127.03808594 691.28320312 C116.85691181 696.52164957 105.04271768 697.59580207 93.82641602 698.92919922 C91.77676643 699.17331533 89.72873931 699.42858917 87.68066406 699.68554688 C83.69336746 700.17465935 79.70863306 700.66139065 75.70996094 701.04882812 C74.80713379 701.13846832 73.90430664 701.22810852 72.97412109 701.32046509 C60.94229261 702.35058896 48.89336309 702.19359135 36.82714844 702.18164062 C34.40316763 702.18231623 31.97918688 702.18328839 29.5552063 702.18453979 C24.48357496 702.18600862 19.4119613 702.18389115 14.34033203 702.17919922 C7.9246165 702.17354536 1.50894322 702.17675841 -4.90677071 702.18277168 C-9.91592713 702.18643628 -14.92507404 702.18521137 -19.9342308 702.18264389 C-22.29467652 702.18198855 -24.65512317 702.18275272 -27.01556778 702.18512344 C-39.79552939 702.19513273 -52.56229881 702.05441405 -65.33642578 701.64990234 C-67.05907748 701.60124621 -67.05907748 701.60124621 -68.81653023 701.55160713 C-83.60337334 701.0256913 -102.78491492 698.6312014 -113.91113281 687.85351562 C-116.8528453 684.00345566 -117.97967469 679.6604981 -119.29003906 675.04882812 C-119.48887695 674.38044922 -119.68771484 673.71207031 -119.89257812 673.0234375 C-135.52718556 620.3178011 -141.87763437 567.62595767 -139.47753906 512.73632812 C-139.43468781 511.73059753 -139.39183655 510.72486694 -139.34768677 509.68865967 C-138.57125501 491.55985625 -137.53943575 473.45030467 -136.34350586 455.34448242 C-134.13486562 421.30378313 -134.03842796 387.20714343 -133.7578125 353.10888672 C-133.70670369 346.99314097 -133.6514944 340.8774322 -133.59667969 334.76171875 C-133.4905621 322.85745377 -133.38882075 310.95315608 -133.29003906 299.04882812 C-134.22090332 299.25741455 -135.15176758 299.46600098 -136.11083984 299.6809082 C-137.34817871 299.95314209 -138.58551758 300.22537598 -139.86035156 300.50585938 C-141.07996582 300.7763208 -142.29958008 301.04678223 -143.55615234 301.32543945 C-148.77766 302.33703401 -153.98499288 302.76705827 -159.29003906 303.04882812 C-161.78459823 299.30698937 -161.66610429 297.48639776 -161.29003906 293.04882812 C-159.32693633 287.96200448 -157.22502982 285.90248343 -152.47753906 283.29882812 C-151.46046875 282.72648437 -150.44339844 282.15414063 -149.39550781 281.56445312 C-144.87784826 279.35960796 -141.13891174 277.93301559 -136.09545898 277.99902344 C-134.83967041 278.01545898 -133.58388184 278.03189453 -132.29003906 278.04882812 C-132.28167193 267.92872455 -132.30608246 257.80925069 -132.37031746 247.68933296 C-132.39917046 242.98823155 -132.41747577 238.28762107 -132.41015625 233.58642578 C-132.40348227 229.03428937 -132.4264977 224.48311615 -132.4685936 219.93117905 C-132.47958329 218.21003533 -132.48055567 216.48879219 -132.4704628 214.76764297 C-132.41345312 203.59750479 -133.92547772 194.35984765 -137.90817261 183.89523315 C-139.7996057 178.86727365 -140.40807525 174.04103563 -140.46704102 168.68383789 C-140.47987625 167.65738663 -140.49271149 166.63093536 -140.50593567 165.57337952 C-140.5133226 164.47344162 -140.52070953 163.37350372 -140.52832031 162.24023438 C-140.53639206 161.08249008 -140.54446381 159.92474579 -140.55278015 158.73191833 C-140.56659858 156.27498864 -140.57733073 153.81803992 -140.58520508 151.36108398 C-140.59662064 148.89162417 -140.6169024 146.42218693 -140.64672852 143.95288086 C-140.9983705 114.78624113 -136.33455007 89.23341432 -123.29003906 63.04882812 C-122.30003906 63.04882812 -121.31003906 63.04882812 -120.29003906 63.04882812 C-119.96003906 61.06882813 -119.63003906 59.08882812 -119.29003906 57.04882812 C-118.63003906 57.04882812 -117.97003906 57.04882812 -117.29003906 57.04882812 C-117.00128906 56.45070312 -116.71253906 55.85257813 -116.41503906 55.23632812 C-115.29003906 53.04882813 -115.29003906 53.04882813 -113.29003906 50.04882812 C-112.63003906 50.04882812 -111.97003906 50.04882812 -111.29003906 50.04882812 C-111.03738281 49.45199219 -110.78472656 48.85515625 -110.52441406 48.24023438 C-109.12778822 45.76078153 -107.8247872 44.66553211 -105.54003906 42.98632812 C-102.66965629 40.84274099 -99.82245994 38.68787769 -97.04003906 36.43164062 C-89.44589993 30.29407348 -81.75071667 24.95811019 -73.29003906 20.04882812 C-72.566875 19.61699219 -71.84371094 19.18515625 -71.09863281 18.74023438 C-68.74693377 17.35359541 -66.43556647 16.1065168 -63.89550781 15.09960938 C-61.36120321 14.07752851 -59.01495907 12.89130634 -56.60253906 11.61132812 C-50.88821755 8.71994987 -44.77550528 6.04882812 -38.29003906 6.04882812 C-36.91289179 5.73142847 -35.54478547 5.37375998 -34.18457031 4.99023438 C-22.56070404 1.82470855 -12.03692918 0.25665094 0 0 Z " fill="#C40000" transform="translate(165.2900390625,0.951171875)"/>
<path d="M0 0 C3.93345003 0.04209516 7.8651887 0.0410225 11.79882812 0.03417969 C30.07511807 0.07879754 47.30649184 1.43989645 64.86132812 6.72949219 C65.87106689 7.03137451 66.88080566 7.33325684 67.92114258 7.64428711 C88.61766279 14.07496217 108.2024715 25.8259051 118.79882812 45.43652344 C123.58255075 56.94735601 121.16830245 72.28763642 118.37817383 84.02490234 C116.52307589 91.83254278 115.34060962 99.70478862 114.24511719 107.65209961 C112.456626 119.734199 109.31161551 129.72151528 99.32617188 137.33105469 C93.71636764 141.18038377 89.95238751 142.66551565 83.06489563 142.68243408 C82.39010719 142.6854052 81.71531875 142.68837633 81.02008218 142.69143748 C78.75401689 142.70012411 76.48800445 142.70163271 74.22192383 142.703125 C72.59901313 142.70775329 70.97610353 142.71277796 69.35319519 142.71817017 C64.93975371 142.73129721 60.52632745 142.73774 56.1128695 142.74218082 C53.3547414 142.74511173 50.59661745 142.74921663 47.83849144 142.753685 C39.20687641 142.76736222 30.57527089 142.77702714 21.94364578 142.78088689 C11.98403677 142.78536498 2.02456519 142.80290036 -7.93500203 142.83188748 C-15.63533899 142.85351991 -23.33563734 142.86359204 -31.03600436 142.86492801 C-35.6338913 142.86597514 -40.2316491 142.87186309 -44.82950401 142.88974762 C-49.15758817 142.90625475 -53.48544649 142.90837101 -57.81355095 142.89960861 C-59.39856828 142.89883959 -60.98359787 142.9031632 -62.56858444 142.91306686 C-80.05822366 143.01590353 -80.05822366 143.01590353 -87.01367188 137.35449219 C-97.20577188 124.95869489 -100.05619054 109.42871275 -103.07617188 94.04199219 C-103.38134328 92.53141 -103.6873303 91.02099235 -103.99414062 89.51074219 C-107.64451879 71.38558335 -111.08941053 53.95511257 -100.41210938 37.61230469 C-95.03971889 30.55982117 -88.63705595 25.47343325 -81.32617188 20.54199219 C-80.34003906 19.85234375 -79.35390625 19.16269531 -78.33789062 18.45214844 C-55.08091182 3.05585116 -27.24426004 -0.30665125 0 0 Z " fill="#351F1F" transform="translate(169.326171875,173.4580078125)"/>
<path d="M0 0 C1.17737228 -0.0071553 2.35474457 -0.01431061 3.5677948 -0.02168274 C4.85099106 -0.02437164 6.13418732 -0.02706055 7.45626831 -0.02983093 C8.82830475 -0.03610108 10.20033951 -0.04274837 11.57237244 -0.04974365 C16.06995475 -0.07072432 20.56753715 -0.08114178 25.06515503 -0.09111023 C26.61795952 -0.0951603 28.17076383 -0.0992773 29.72356796 -0.10346031 C37.02194106 -0.12250038 44.32030414 -0.13673278 51.61869729 -0.14507228 C60.02185149 -0.15483461 68.42474157 -0.1811327 76.82780278 -0.22157317 C83.33672872 -0.25181453 89.8455793 -0.2665488 96.35457408 -0.26985329 C100.23550655 -0.272195 104.11615649 -0.2810397 107.99701309 -0.30631447 C111.65298579 -0.32974076 115.30849286 -0.33377078 118.96452141 -0.32355309 C120.92929473 -0.32282836 122.89404519 -0.34181743 124.85871887 -0.36161804 C133.81982721 -0.3095166 141.98924121 0.79105745 149.11984253 6.58467102 C154.35010186 13.28594079 154.81853137 17.78129149 154.11984253 26.14717102 C153.58518206 29.59504561 152.98630829 33.01502045 152.32833862 36.44062805 C151.32767391 41.7048933 150.65046718 46.94136389 150.11984253 52.27217102 C148.33632349 69.40610156 146.01502785 87.4375199 132.11984253 99.14717102 C123.70837005 104.91039945 114.74124207 108.79892398 105.11984253 112.14717102 C104.40054565 112.43205383 103.68124878 112.71693665 102.94015503 113.01045227 C80.27377163 121.6095666 46.61177141 122.24939846 24.11984253 113.14717102 C23.00440063 112.70510315 23.00440063 112.70510315 21.86642456 112.25410461 C12.58083103 108.4718135 4.5095614 104.02539751 -2.88015747 97.14717102 C-3.61879028 96.49877258 -4.3574231 95.85037415 -5.11843872 95.18232727 C-14.09304417 86.89681401 -15.6798843 77.42205417 -17.44265747 65.64717102 C-17.75744882 63.61944081 -18.07569868 61.59227233 -18.39411926 59.56510925 C-18.70245888 57.59837905 -19.00716366 55.6310801 -19.3117981 53.66377258 C-19.89025003 50.08472546 -20.57160525 46.54135364 -21.2973938 42.9901886 C-22.67748802 36.1187003 -23.18104103 29.45955719 -23.25515747 22.45967102 C-23.26909546 21.62097473 -23.28303345 20.78227844 -23.2973938 19.91816711 C-23.25853947 14.94178502 -22.71864022 11.40489515 -19.88015747 7.14717102 C-17.79421997 5.28388977 -17.79421997 5.28388977 -15.50515747 3.83467102 C-14.7549231 3.34353821 -14.00468872 2.8524054 -13.23171997 2.34638977 C-8.95754329 0.16670166 -4.73607978 0.01982546 0 0 Z " fill="#361E1E" transform="translate(110.88015747070313,534.8528289794922)"/>
<path d="M0 0 C1.32 0 2.64 0 4 0 C4.21087821 26.88735189 4.36926014 53.77457861 4.46630955 80.66259289 C4.51258281 93.1491236 4.57559327 105.63513845 4.67895508 118.12133789 C4.76907351 129.01298037 4.82682137 139.90424899 4.84679645 150.79625398 C4.85846057 156.5558809 4.88558552 162.31443895 4.95157051 168.07372093 C5.01336177 173.51181811 5.03136532 178.94842207 5.01796913 184.38683701 C5.02041423 186.36638233 5.03789694 188.34598568 5.07284927 190.32522392 C5.37512753 208.34989471 0.51231872 225.4167569 -11.86328125 239.0234375 C-16.02455694 242.8728077 -19.14601849 245 -25 245 C-33.88569962 187.77609444 -32.87270312 126.83458448 -22 70 C-21.55709286 67.63284969 -21.11438353 65.26566236 -20.671875 62.8984375 C-19.83998181 58.48202215 -18.98358422 54.07150685 -18.10546875 49.6640625 C-17.44312375 46.33199996 -16.82196428 43.00539896 -16.30078125 39.6484375 C-14.73137586 30.15203544 -11.1966218 22.4087584 -6.91748047 13.89160156 C-5.32417076 10.60661923 -4.04607428 7.20963227 -2.7890625 3.78515625 C-2 2 -2 2 0 0 Z " fill="#331C1C" transform="translate(299,280)"/>
<path d="M0 0 C2.37548828 0.29833984 2.37548828 0.29833984 5 1 C6.59196434 3.57835793 7.73684511 5.84933467 8.875 8.625 C9.38317261 9.82467407 9.38317261 9.82467407 9.90161133 11.04858398 C20.10103937 35.86616221 24.38768415 61.98807893 28.25 88.375 C28.44651657 89.69680771 28.44651657 89.69680771 28.64700317 91.0453186 C29.02984565 93.64086542 29.39959919 96.23797081 29.765625 98.8359375 C29.87581467 99.57723404 29.98600433 100.31853058 30.09953308 101.08229065 C32.34784243 117.48634797 32.16197968 134.17464927 32.16796875 150.6953125 C32.17119417 152.82461569 32.17455913 154.95391867 32.17805481 157.08322144 C32.18398979 161.51202915 32.18590034 165.94081751 32.18530273 170.36962891 C32.18520089 175.99825693 32.19890194 181.62675947 32.21607494 187.25535774 C32.22727421 191.6412715 32.2292196 196.02715554 32.22869301 200.41308212 C32.22985933 202.48676871 32.23420354 204.56045641 32.24202538 206.63412857 C32.35039579 238.29920841 32.35039579 238.29920841 29 245 C19.56549262 242.64137315 13.0958885 235.99892523 8 228 C-0.97021608 212.39328259 -0.45127026 192.20877263 -0.34057617 174.71557617 C-0.33972685 172.79132094 -0.34021098 170.86706474 -0.34190369 168.94281006 C-0.34275316 163.79330293 -0.32530032 158.64401185 -0.30418181 153.49455428 C-0.28523721 148.08543649 -0.28365073 142.67631199 -0.28010559 137.26716614 C-0.27083677 127.05739513 -0.24629401 116.84772221 -0.21605712 106.63799411 C-0.18235093 95.00049936 -0.1659866 83.36299956 -0.15097082 71.72546804 C-0.11973897 47.81692463 -0.06708058 23.90846785 0 0 Z " fill="#321C1C" transform="translate(49,280)"/>
<path d="M0 0 C17.11033223 1.39540574 34.17406265 9.66721766 46 22 C51.60286091 29.02455391 55.65520275 36.72652867 59.5 44.8125 C60.06533447 45.99884033 60.63066895 47.18518066 61.21313477 48.4074707 C66.05177931 58.69694776 69.91487866 69.06461942 73 80 C73.2582959 80.8962207 73.5165918 81.79244141 73.78271484 82.71582031 C84.59430648 120.8531929 86.40446187 159.60230303 86 199 C84.35 198.67 82.7 198.34 81 198 C80.22224406 191.11598818 79.79910014 184.28262039 79.60546875 177.359375 C79.53950844 175.31246702 79.47249254 173.26559284 79.40454102 171.21875 C79.36966583 170.16171875 79.33479065 169.1046875 79.29885864 168.015625 C78.61947579 148.09252266 77.29598402 128.6720672 74 109 C73.74861134 107.38433004 73.49847638 105.76846416 73.25 104.15234375 C68.51300429 74.40039265 60.07362957 41.20191526 36 21 C27.1632946 14.63391194 17.25437291 11.31687654 7 8 C7.34611328 8.71945801 7.69222656 9.43891602 8.04882812 10.18017578 C12.64364782 19.91314201 16.59123938 29.85177874 20.5 39.875 C21.46380255 42.33578282 22.42870534 44.79613192 23.39379883 47.25640869 C24.02217136 48.85935617 24.6496277 50.46266313 25.27612305 52.06634521 C26.76531192 55.87465405 28.2677168 59.67651563 29.8046875 63.46582031 C30.08590454 64.16039337 30.36712158 64.85496643 30.65686035 65.57058716 C31.41863526 67.44687737 32.18475157 69.32140331 32.95117188 71.19580078 C34 74 34 74 34 76 C35.0209375 75.505 35.0209375 75.505 36.0625 75 C41.64214285 73.10054711 45.75658923 73.6338506 51.0625 76 C56.08535756 78.70284866 59.33804001 81.95213513 62 87 C62.9375 90.4375 62.9375 90.4375 63 93 C61.23999081 94.76000919 58.82505906 94.21414179 56.4375 94.25 C50.88306115 94.19034612 46.89115778 93.67629388 42 91 C41 88.3125 41 88.3125 41 86 C42.60397277 85.83147753 44.2081869 85.66525114 45.8125 85.5 C46.70582031 85.4071875 47.59914062 85.314375 48.51953125 85.21875 C51 85 51 85 54 85 C48.33778322 81.38247261 42.59767367 81.30959957 36 81 C38.35016641 89.7822008 41.09409349 98.38874111 44 107 C46.5603041 114.59248461 49.01800554 122.16652032 51.125 129.8984375 C52.06772856 133.24007355 53.15894566 136.51660669 54.25 139.8125 C55.91512709 145.1200926 56.37532579 149.46394455 56 155 C54.68 155 53.36 155 52 155 C46.86106462 142.33457076 42.5900866 129.36415514 39.1875 116.125 C34.46455809 97.9810315 28.71546562 79.99854046 21.96289062 62.51025391 C20.87881758 59.68407767 19.8221397 56.84830876 18.765625 54.01171875 C15.29153687 44.75801766 11.76067226 35.55688477 7.69140625 26.546875 C7.41478653 25.93368408 7.13816681 25.32049316 6.85316467 24.6887207 C5.50800699 21.71850608 4.14428734 18.75838928 2.7590332 15.80664062 C2.26878662 14.74123047 1.77854004 13.67582031 1.2734375 12.578125 C0.83435059 11.64387695 0.39526367 10.70962891 -0.05712891 9.74707031 C-1.11679644 6.65971168 -1.244452 4.24263536 -1 1 C-0.67 0.67 -0.34 0.34 0 0 Z " fill="#861111" transform="translate(206,15)"/>
<path d="M0 0 C1.16144531 0.00902344 2.32289063 0.01804687 3.51953125 0.02734375 C4.39996094 0.03894531 5.28039062 0.05054688 6.1875 0.0625 C5.70886946 6.82399906 4.27764277 12.16551795 1.625 18.375 C0.89422853 20.14180191 0.16376851 21.90873266 -0.56640625 23.67578125 C-0.94039551 24.56990723 -1.31438477 25.4640332 -1.69970703 26.38525391 C-3.44872788 30.59318778 -5.12891781 34.82806103 -6.8125 39.0625 C-8.83264797 44.12729244 -10.86093768 49.18834123 -12.91796875 54.23828125 C-16.60410009 63.31216602 -20.05598061 72.38119121 -23.04638672 81.71289062 C-23.98870609 84.60291026 -24.96476788 87.48077264 -25.94140625 90.359375 C-29.53418809 100.97138108 -33.09486279 111.5565319 -35.99121094 122.38208008 C-37.71580311 128.81642287 -39.62280889 135.18993142 -41.5625 141.5625 C-41.86881348 142.57344727 -42.17512695 143.58439453 -42.49072266 144.62597656 C-42.77737793 145.5640918 -43.0640332 146.50220703 -43.359375 147.46875 C-43.61557617 148.30728516 -43.87177734 149.14582031 -44.13574219 150.00976562 C-44.8125 152.0625 -44.8125 152.0625 -45.8125 154.0625 C-47.1325 154.0625 -48.4525 154.0625 -49.8125 154.0625 C-50.00185718 147.85036295 -49.54154454 142.59711447 -47.875 136.625 C-47.66117676 135.83512695 -47.44735352 135.04525391 -47.22705078 134.23144531 C-43.669603 121.52176499 -39.60197746 108.55167255 -34.21875 96.4921875 C-33.05492301 93.65374278 -32.2492099 91.0762209 -31.5078125 88.1171875 C-27.08944406 70.52558953 -20.66216425 53.89206711 -13.9375 37.0625 C-13.45766663 35.86091248 -12.97783325 34.65932495 -12.48345947 33.42132568 C-10.28204324 27.92149088 -8.07048002 22.42575127 -5.84033203 16.9375 C-5.32359421 15.66519531 -5.32359421 15.66519531 -4.79641724 14.3671875 C-3.87901033 12.21829107 -2.88217419 10.13912208 -1.8125 8.0625 C-16.90722651 11.25262261 -29.46329204 17.12393406 -38.3125 30.25 C-47.72696076 45.43710507 -54.52965836 62.04812673 -59.8125 79.0625 C-60.13992187 80.0716748 -60.46734375 81.08084961 -60.8046875 82.12060547 C-70.5799709 112.70052163 -73.16822865 145.40518356 -73.671875 177.3828125 C-73.93252971 192.42258912 -73.93252971 192.42258912 -75.8125 198.0625 C-77.1325 198.0625 -78.4525 198.0625 -79.8125 198.0625 C-79.85966994 189.58714957 -79.88499769 181.11218445 -79.86328125 172.63671875 C-79.86215836 171.91057877 -79.86103546 171.18443878 -79.85987854 170.43629456 C-79.83393015 162.60774949 -79.60635952 154.85522158 -78.8125 147.0625 C-78.7098584 146.00111816 -78.6072168 144.93973633 -78.50146484 143.84619141 C-74.5334523 104.25636882 -67.49327048 54.25182661 -40.8125 23.0625 C-40.02875 22.010625 -39.245 20.95875 -38.4375 19.875 C-32.60566343 13.62660368 -25.86217552 8.88919683 -18.5 4.625 C-17.62033569 4.11187256 -17.62033569 4.11187256 -16.72290039 3.58837891 C-11.00329988 0.38135508 -6.48246475 -0.06547944 0 0 Z " fill="#841010" transform="translate(139.8125,15.9375)"/>
<path d="M0 0 C1.59134766 -0.02126953 1.59134766 -0.02126953 3.21484375 -0.04296875 C6.0625 0.1875 6.0625 0.1875 9.0625 2.1875 C10.61633384 6.49189151 9.6342436 9.63977506 8.33203125 13.921875 C8.14033859 14.55933655 7.94864594 15.1967981 7.75114441 15.85357666 C7.34368756 17.1999415 6.93066824 18.54463394 6.51245117 19.88769531 C5.88244921 21.91354612 5.27086834 23.9442403 4.66210938 25.9765625 C2.74252355 32.30527749 0.71749499 38.48423917 -2.1340332 44.46191406 C-3.05964757 46.36432662 -3.05964757 46.36432662 -3.9375 49.1875 C-4.89011719 49.30867188 -5.84273437 49.42984375 -6.82421875 49.5546875 C-8.70560547 49.80605469 -8.70560547 49.80605469 -10.625 50.0625 C-11.86636719 50.22492188 -13.10773438 50.38734375 -14.38671875 50.5546875 C-19.11718561 51.397741 -22.84485384 52.39197972 -25.9375 56.1875 C-26.39125 57.05375 -26.845 57.92 -27.3125 58.8125 C-28.9375 61.1875 -28.9375 61.1875 -31.5390625 61.8359375 C-32.33054687 61.95195312 -33.12203125 62.06796875 -33.9375 62.1875 C-32.80317816 57.31232954 -31.65843449 52.43978687 -30.50195312 47.56982422 C-30.13904188 46.03812528 -29.77819275 44.50593551 -29.41992188 42.97314453 C-25.64229555 26.85156864 -20.87446382 12.34708816 -7.9375 1.1875 C-5.2264923 -0.16800385 -3.02410831 0.01832793 0 0 Z " fill="#950808" transform="translate(104.9375,77.8125)"/>
<path d="M0 0 C15.30355254 4.33600655 31.14826605 15.32915449 41 28 C41.71774017 29.64531799 42.39553183 31.30978095 43 33 C30.16619654 33.90948213 19.03169788 30.10895578 9 22 C3.39161901 16.11384542 1.92480721 7.65621637 0 0 Z " fill="#2A1F1F" transform="translate(251,17)"/>
<path d="M0 0 C0.66 0.33 1.32 0.66 2 1 C0.7507318 8.62053602 -1.19669094 17.1514913 -7.52050781 22.21826172 C-16.60199839 28.35489573 -26.1393444 32.16166685 -37 33.1875 C-38.16208984 33.3102832 -38.16208984 33.3102832 -39.34765625 33.43554688 C-41.23080183 33.63316092 -43.11528577 33.81795374 -45 34 C-43.60553746 30.70593799 -42.11878956 29.04595247 -39.25 26.9375 C-36.37961722 24.79391286 -33.53242088 22.63904957 -30.75 20.3828125 C-23.15418582 14.24389158 -15.45541615 8.92077497 -7 4 C-6.24203125 3.53335937 -5.4840625 3.06671875 -4.703125 2.5859375 C-3.17406344 1.65712738 -1.59303655 0.81421868 0 0 Z " fill="#291F1F" transform="translate(99,17)"/>
<path d="M0 0 C1.09570312 0.00902344 2.19140625 0.01804687 3.3203125 0.02734375 C4.58488281 0.04474609 4.58488281 0.04474609 5.875 0.0625 C4.98735618 11.06928335 2.05576057 21.79135914 -4.125 31.0625 C-4.125 29.4125 -4.125 27.7625 -4.125 26.0625 C-6.04135217 26.00826362 -7.95814925 25.96960037 -9.875 25.9375 C-10.94234375 25.91429688 -12.0096875 25.89109375 -13.109375 25.8671875 C-16.89321286 26.11225472 -18.95462294 26.87364331 -21.609375 29.5703125 C-22.02703125 30.10398437 -22.4446875 30.63765625 -22.875 31.1875 C-23.6175 32.13625 -24.36 33.085 -25.125 34.0625 C-25.785 33.4025 -26.445 32.7425 -27.125 32.0625 C-26.734375 29.3828125 -26.734375 29.3828125 -25.875 26.1875 C-25.60171875 25.13820313 -25.3284375 24.08890625 -25.046875 23.0078125 C-23.05988502 16.65954789 -23.05988502 16.65954789 -20.43261719 14.98168945 C-19.76907227 14.71573975 -19.10552734 14.44979004 -18.421875 14.17578125 C-17.68839844 13.87736328 -16.95492187 13.57894531 -16.19921875 13.27148438 C-15.43222656 12.97564453 -14.66523437 12.67980469 -13.875 12.375 C-13.12347656 12.06755859 -12.37195313 11.76011719 -11.59765625 11.44335938 C-7.45380557 9.7908814 -3.58587147 8.59524739 0.875 8.0625 C-0.9878949 5.76189466 -0.9878949 5.76189466 -3.9453125 5.8671875 C-5.03585938 5.89039062 -6.12640625 5.91359375 -7.25 5.9375 C-8.89355469 5.96457031 -8.89355469 5.96457031 -10.5703125 5.9921875 C-11.41335937 6.01539062 -12.25640625 6.03859375 -13.125 6.0625 C-8.40544981 1.21875112 -6.74148105 -0.07171788 0 0 Z " fill="#A10505" transform="translate(104.125,95.9375)"/>
<path d="M0 0 C5.02285756 2.70284866 8.27554001 5.95213513 10.9375 11 C11.875 14.4375 11.875 14.4375 11.9375 17 C10.17749081 18.76000919 7.76255906 18.21414179 5.375 18.25 C-0.17943885 18.19034612 -4.17134222 17.67629388 -9.0625 15 C-10.0625 12.3125 -10.0625 12.3125 -10.0625 10 C-8.45852723 9.83147753 -6.8543131 9.66525114 -5.25 9.5 C-4.35667969 9.4071875 -3.46335938 9.314375 -2.54296875 9.21875 C-0.0625 9 -0.0625 9 2.9375 9 C-1.73299515 6.2623713 -5.05049719 5.66003766 -10.4375 5.8125 C-11.68273437 5.83957031 -12.92796875 5.86664063 -14.2109375 5.89453125 C-15.62246094 5.94673828 -15.62246094 5.94673828 -17.0625 6 C-17.0625 4.02 -17.0625 2.04 -17.0625 0 C-10.97062269 -2.95363748 -6.10723586 -2.72349707 0 0 Z " fill="#9D0707" transform="translate(257.0625,91)"/>
<path d="M0 0 C0.33 0 0.66 0 1 0 C1.04659173 12.48399484 1.0820044 24.96796857 1.10362434 37.45203304 C1.1140072 43.25052425 1.1280645 49.04895543 1.15087891 54.84741211 C1.1728052 60.4560307 1.18460983 66.06459201 1.18975449 71.6732502 C1.19341506 73.79997215 1.2005618 75.92669141 1.21146011 78.0533886 C1.3697581 110.26048381 1.3697581 110.26048381 -2 117 C-2.66 117 -3.32 117 -4 117 C-3.26323167 92.46365158 -2.41397248 67.93178563 -1.54064941 43.39996338 C-1.3657963 38.48410775 -1.19172604 33.5682244 -1.01757812 28.65234375 C-0.67912563 19.10153614 -0.33984726 9.55075808 0 0 Z " fill="#3E1313" transform="translate(80,408)"/>
<path d="M0 0 C0.33 0 0.66 0 1 0 C1.17209985 2.24959094 1.33732826 4.49970764 1.5 6.75 C1.5928125 8.00296875 1.685625 9.2559375 1.78125 10.546875 C2.37445276 20.85526194 1.86060947 31.08744665 1.125 41.375 C1.04636719 42.60605469 0.96773438 43.83710938 0.88671875 45.10546875 C0.80292969 46.29527344 0.71914063 47.48507812 0.6328125 48.7109375 C0.55949707 49.77618652 0.48618164 50.84143555 0.41064453 51.93896484 C-0.0224517 55.16735994 -0.90401593 57.93909175 -2 61 C-3.05167812 64.44308981 -3.19770427 67.70190087 -3.31640625 71.296875 C-3.35830078 72.50214844 -3.40019531 73.70742188 -3.44335938 74.94921875 C-3.48267578 76.20347656 -3.52199219 77.45773437 -3.5625 78.75 C-3.60568359 80.01972656 -3.64886719 81.28945313 -3.69335938 82.59765625 C-3.79939722 85.73166365 -3.90146058 88.86574933 -4 92 C-4.33 92 -4.66 92 -5 92 C-5.3189443 71.54667459 -5.25510666 51.21431537 -3.625 30.8125 C-3.53017838 29.60290115 -3.53017838 29.60290115 -3.43344116 28.36886597 C-2.67192182 18.83700532 -1.61744227 9.42954312 0 0 Z " fill="#561010" transform="translate(274,367)"/>
<path d="M0 0 C1.22847656 -0.00773438 2.45695312 -0.01546875 3.72265625 -0.0234375 C6.9375 0.375 6.9375 0.375 8.87109375 1.6484375 C9.9375 3.375 9.9375 3.375 9.9375 7.375 C7.00713123 8.74500201 4.06723086 10.09318552 1.125 11.4375 C0.29162109 11.82744141 -0.54175781 12.21738281 -1.40039062 12.61914062 C-2.20283203 12.98330078 -3.00527344 13.34746094 -3.83203125 13.72265625 C-4.57042236 14.06304932 -5.30881348 14.40344238 -6.06958008 14.75415039 C-8.0625 15.375 -8.0625 15.375 -11.0625 14.375 C-11.17065225 12.60550905 -11.24816083 10.83412513 -11.3125 9.0625 C-11.35890625 8.07636719 -11.4053125 7.09023438 -11.453125 6.07421875 C-11.0625 3.375 -11.0625 3.375 -9.48828125 1.54296875 C-6.21883996 -0.03120669 -3.61744986 -0.02282303 0 0 Z " fill="#A80505" transform="translate(77.0625,560.625)"/>
<path d="M0 0 C1.09570312 0.00902344 2.19140625 0.01804687 3.3203125 0.02734375 C4.16335937 0.03894531 5.00640625 0.05054687 5.875 0.0625 C5.36414188 6.49931228 4.14557103 12.02192424 1.875 18.0625 C-2.875 16.1875 -2.875 16.1875 -5.125 15.0625 C-10.84472855 14.5125261 -13.63788972 15.51455234 -18.125 19.0625 C-18.785 19.7225 -19.445 20.3825 -20.125 21.0625 C-21.115 21.0625 -22.105 21.0625 -23.125 21.0625 C-23.13671875 18.796875 -23.13671875 18.796875 -22.125 16.0625 C-19.57814007 14.36511824 -16.7971391 13.37268208 -13.9375 12.3125 C-13.18146484 12.00957031 -12.42542969 11.70664063 -11.64648438 11.39453125 C-7.49299231 9.77348057 -3.57834559 8.60229947 0.875 8.0625 C-0.9878949 5.76189466 -0.9878949 5.76189466 -3.9453125 5.8671875 C-5.03585938 5.89039062 -6.12640625 5.91359375 -7.25 5.9375 C-8.89355469 5.96457031 -8.89355469 5.96457031 -10.5703125 5.9921875 C-11.41335937 6.01539062 -12.25640625 6.03859375 -13.125 6.0625 C-8.40544981 1.21875112 -6.74148105 -0.07171788 0 0 Z " fill="#BE0101" transform="translate(104.125,95.9375)"/>
<path d="M0 0 C0.61875 0.33 1.2375 0.66 1.875 1 C2.205 3.97 2.535 6.94 2.875 10 C0.26942509 9.71815415 -2.33400398 9.42497289 -4.9375 9.125 C-6.04448242 9.00705078 -6.04448242 9.00705078 -7.17382812 8.88671875 C-10.84006181 8.45539714 -13.00451745 8.0803217 -16.125 6 C-15.75 3.0625 -15.75 3.0625 -15.125 0 C-10.67416655 -2.22541672 -4.60248787 -1.47279612 0 0 Z " fill="#AD0404" transform="translate(284.125,548)"/>
<path d="M0 0 C6.8886266 -0.77658839 11.41804064 -0.05186307 17.015625 4.15625 C21.18446255 8.02965811 23.80154798 11.77733736 24.3125 17.5 C24.209375 18.325 24.10625 19.15 24 20 C21.84757262 17.92444503 19.96918834 15.95598335 18.25 13.5 C12.89759255 7.55288061 5.64154389 6.19007651 -2 5 C-1.34 3.35 -0.68 1.7 0 0 Z " fill="#A60505" transform="translate(251,111)"/>
<path d="M0 0 C1.93166016 0.01740234 1.93166016 0.01740234 3.90234375 0.03515625 C5.19269531 0.04417969 6.48304687 0.05320312 7.8125 0.0625 C8.81152344 0.07410156 9.81054688 0.08570313 10.83984375 0.09765625 C10.83984375 1.74765625 10.83984375 3.39765625 10.83984375 5.09765625 C7.36320995 7.24101786 4.6275518 7.31043251 0.58984375 7.22265625 C-0.4878125 7.20460938 -1.56546875 7.1865625 -2.67578125 7.16796875 C-3.495625 7.14476562 -4.31546875 7.1215625 -5.16015625 7.09765625 C-4.12203006 0.12738041 -4.12203006 0.12738041 0 0 Z " fill="#850909" transform="translate(71.16015625,546.90234375)"/>
<path d="M0 0 C0.66 0 1.32 0 2 0 C0.5276086 9.36509411 -4.86907065 18.75124747 -12 25 C-12.66 25 -13.32 25 -14 25 C-13.43055957 21.20652184 -12.38276001 18.6087654 -10.3125 15.390625 C-9.77882813 14.55402344 -9.24515625 13.71742188 -8.6953125 12.85546875 C-8.13585937 11.99566406 -7.57640625 11.13585937 -7 10.25 C-6.44054687 9.37472656 -5.88109375 8.49945313 -5.3046875 7.59765625 C-1.19521104 1.19521104 -1.19521104 1.19521104 0 0 Z " fill="#3D1414" transform="translate(297,496)"/>
<path d="M0 0 C3.40516738 0.04428046 5.70237235 0.23319024 8.9375 1.375 C10.75 3.25 10.75 3.25 11.0625 6.4375 C10.959375 7.365625 10.85625 8.29375 10.75 9.25 C9.1 9.25 7.45 9.25 5.75 9.25 C5.75 8.59 5.75 7.93 5.75 7.25 C2.78 6.755 2.78 6.755 -0.25 6.25 C-0.25 5.59 -0.25 4.93 -0.25 4.25 C-2.23 4.25 -4.21 4.25 -6.25 4.25 C-6.25 -0.6941511 -4.44237348 0.07126802 0 0 Z " fill="#6D0D0D" transform="translate(274.25,560.75)"/>
<path d="M0 0 C1.17949219 0.01804687 2.35898438 0.03609375 3.57421875 0.0546875 C4.92966797 0.08949219 4.92966797 0.08949219 6.3125 0.125 C6.6425 1.115 6.9725 2.105 7.3125 3.125 C1.53375154 6.38211277 -3.06572074 7.81843615 -9.6875 8.125 C-9.875 5.25 -9.875 5.25 -9.6875 2.125 C-6.05554504 -0.29630331 -4.30400652 -0.08522785 0 0 Z " fill="#750C0C" transform="translate(76.6875,560.875)"/>
<path d="M0 0 C1.08667969 0.01804687 2.17335938 0.03609375 3.29296875 0.0546875 C4.54013672 0.08949219 4.54013672 0.08949219 5.8125 0.125 C4.9375 5.875 4.9375 5.875 3.8125 8.125 C2.8225 7.795 1.8325 7.465 0.8125 7.125 C-1.76015818 7.05470879 -4.30391431 7.03129168 -6.875 7.0625 C-7.57689453 7.06701172 -8.27878906 7.07152344 -9.00195312 7.07617188 C-10.73050538 7.08793073 -12.45901365 7.10586546 -14.1875 7.125 C-9.40337977 2.21157922 -6.97738345 -0.15005126 0 0 Z " fill="#BD0101" transform="translate(108.1875,84.875)"/>
<path d="M0 0 C0.90105469 0.00902344 1.80210938 0.01804687 2.73046875 0.02734375 C3.41753906 0.03894531 4.10460937 0.05054687 4.8125 0.0625 C4.0625 6.6875 4.0625 6.6875 1.8125 10.0625 C1.8125 8.4125 1.8125 6.7625 1.8125 5.0625 C-0.10385217 5.00826362 -2.02064925 4.96960037 -3.9375 4.9375 C-5.00484375 4.91429688 -6.0721875 4.89109375 -7.171875 4.8671875 C-10.95571286 5.11225472 -13.01712294 5.87364331 -15.671875 8.5703125 C-16.08953125 9.10398437 -16.5071875 9.63765625 -16.9375 10.1875 C-17.68 11.13625 -18.4225 12.085 -19.1875 13.0625 C-19.8475 12.4025 -20.5075 11.7425 -21.1875 11.0625 C-15.36557926 4.69477419 -8.87902964 -0.11531207 0 0 Z " fill="#C00101" transform="translate(98.1875,116.9375)"/>
<path d="M0 0 C0.33 0.66 0.66 1.32 1 2 C3.11846285 2.68729254 3.11846285 2.68729254 5.5625 3.125 C6.80193359 3.37636719 6.80193359 3.37636719 8.06640625 3.6328125 C8.70449219 3.75398437 9.34257812 3.87515625 10 4 C10 4.66 10 5.32 10 6 C12.97 6.495 12.97 6.495 16 7 C16 7.66 16 8.32 16 9 C17.65 9 19.3 9 21 9 C21 7.02 21 5.04 21 3 C21.33 3 21.66 3 22 3 C22 5.97 22 8.94 22 12 C19.03 11.67 16.06 11.34 13 11 C12.67 10.01 12.34 9.02 12 8 C11.21625 8.04125 10.4325 8.0825 9.625 8.125 C7 8 7 8 5 6 C4.01 6 3.02 6 2 6 C1.34 5.34 0.68 4.68 0 4 C0 2.68 0 1.36 0 0 Z " fill="#9A0707" transform="translate(264,561)"/>
<path d="M0 0 C0.66 0.33 1.32 0.66 2 1 C1.8125 3.3125 1.8125 3.3125 1 6 C-4.56046056 10.32480265 -10.27348401 10.11400875 -17 10 C-17 8.35 -17 6.7 -17 5 C-16.09636719 5.01160156 -15.19273438 5.02320313 -14.26171875 5.03515625 C-12.49248047 5.04869141 -12.49248047 5.04869141 -10.6875 5.0625 C-9.51574219 5.07410156 -8.34398438 5.08570313 -7.13671875 5.09765625 C-3.96940805 5.14899898 -3.96940805 5.14899898 -1 4 C-0.26676204 1.98491642 -0.26676204 1.98491642 0 0 Z " fill="#A70404" transform="translate(82,548)"/>
<path d="M0 0 C2 1.25 2 1.25 4 3 C4 4.32 4 5.64 4 7 C0.02231229 7.69609535 -3.95621455 8.25949714 -7.96484375 8.74609375 C-10.9828485 9.12262025 -13.99048534 9.56111245 -17 10 C-17 7.69 -17 5.38 -17 3 C-16.67 3 -16.34 3 -16 3 C-16 4.65 -16 6.3 -16 8 C-14.26982492 7.54548816 -12.54090123 7.08621143 -10.8125 6.625 C-9.84957031 6.36976563 -8.88664062 6.11453125 -7.89453125 5.8515625 C-5.17789793 5.05233704 -2.60862825 4.0968638 0 3 C0 2.01 0 1.02 0 0 Z " fill="#940707" transform="translate(83,561)"/>
<path d="M0 0 C10.55808656 -0.3690205 10.55808656 -0.3690205 15 2 C14.67 2.99 14.34 3.98 14 5 C9.05 4.67 4.1 4.34 -1 4 C-0.67 2.68 -0.34 1.36 0 0 Z " fill="#5C0F0F" transform="translate(271,547)"/>
<path d="M0 0 C1.32 0 2.64 0 4 0 C2.9559635 6.68183363 1.5957524 12.7465965 -1 19 C-1.33 19 -1.66 19 -2 19 C-1.85820962 16.77057252 -1.71140302 14.54146372 -1.5625 12.3125 C-1.48128906 11.07113281 -1.40007812 9.82976562 -1.31640625 8.55078125 C-1.05508683 5.61819663 -0.65201621 2.86558383 0 0 Z " fill="#B40303" transform="translate(72,120)"/>
<path d="M0 0 C0.33 0.99 0.66 1.98 1 3 C2.37285156 2.98259766 2.37285156 2.98259766 3.7734375 2.96484375 C5.55621094 2.95130859 5.55621094 2.95130859 7.375 2.9375 C8.55835938 2.92589844 9.74171875 2.91429687 10.9609375 2.90234375 C14 3 14 3 16 4 C16.33 3.34 16.66 2.68 17 2 C17 3.65 17 5.3 17 7 C11.72 6.34 6.44 5.68 1 5 C0.67 3.35 0.34 1.7 0 0 Z " fill="#930808" transform="translate(269,548)"/>
<path d="M0 0 C4.29 0 8.58 0 13 0 C9.71568547 3.28431453 8.71363525 3.5143852 4.3125 4.1875 C3.31863281 4.34605469 2.32476562 4.50460937 1.30078125 4.66796875 C0.54152344 4.77753906 -0.21773438 4.88710938 -1 5 C-0.67 3.35 -0.34 1.7 0 0 Z " fill="#690D0D" transform="translate(68,547)"/>
<path d="M0 0 C0.66 0 1.32 0 2 0 C2.09507063 6.43311296 2.15316726 12.65758005 1 19 C-1.43929003 15.34106495 -1.26289673 12.59721667 -1.1875 8.375 C-1.18685547 7.68148438 -1.18621094 6.98796875 -1.18554688 6.2734375 C-1.14043257 1.14043257 -1.14043257 1.14043257 0 0 Z " fill="#3D1414" transform="translate(276,366)"/>
<path d="M0 0 C0.66 0 1.32 0 2 0 C3.125 6.625 3.125 6.625 2 10 C-0.0625 10.6875 -0.0625 10.6875 -2 11 C-2.25 3.375 -2.25 3.375 0 0 Z " fill="#3D1616" transform="translate(300,482)"/>
<path d="M0 0 C0 0.99 0 1.98 0 3 C-2.70879335 4.35439668 -5.00933268 4.06501451 -8 4 C-7.67 3.01 -7.34 2.02 -7 1 C-4.53721199 -0.231394 -2.7204945 -0.07159196 0 0 Z " fill="#4E1111" transform="translate(75,563)"/>
<path d="M0 0 C0.99 0.33 1.98 0.66 3 1 C2.04882866 2.1725131 1.08882991 3.33787015 0.125 4.5 C-0.40867187 5.1496875 -0.94234375 5.799375 -1.4921875 6.46875 C-1.98976563 6.9740625 -2.48734375 7.479375 -3 8 C-3.66 8 -4.32 8 -5 8 C-4.66275164 4.88045262 -4.3790035 3.3790035 -2.125 1.125 C-1.42375 0.75375 -0.7225 0.3825 0 0 Z " fill="#4A1212" transform="translate(288,513)"/>
<path d="M0 0 C0.66 0.66 1.32 1.32 2 2 C5.12814514 2.24360073 5.12814514 2.24360073 8.625 2.125 C9.81351562 2.10695313 11.00203125 2.08890625 12.2265625 2.0703125 C13.14179688 2.04710937 14.05703125 2.02390625 15 2 C14.67 2.99 14.34 3.98 14 5 C9.05 4.67 4.1 4.34 -1 4 C-0.67 2.68 -0.34 1.36 0 0 Z " fill="#710C0C" transform="translate(271,547)"/>
<path d="M0 0 C4.29 0 8.58 0 13 0 C11.515 1.485 11.515 1.485 10 3 C9.01 3 8.02 3 7 3 C7 2.34 7 1.68 7 1 C4.36 1.66 1.72 2.32 -1 3 C-0.67 2.01 -0.34 1.02 0 0 Z " fill="#640E0E" transform="translate(68,562)"/>
<path d="" fill="#454545" transform="translate(0,0)"/>
<path d="" fill="#473D3D" transform="translate(0,0)"/>
<path d="" fill="#453A3A" transform="translate(0,0)"/>
<path d="" fill="#463A3A" transform="translate(0,0)"/>
<path d="" fill="#3C3030" transform="translate(0,0)"/>
<path d="" fill="#443838" transform="translate(0,0)"/>
<path d="" fill="#433636" transform="translate(0,0)"/>
<path d="" fill="#3D3333" transform="translate(0,0)"/>
<path d="" fill="#3C3030" transform="translate(0,0)"/>
<path d="" fill="#7B4444" transform="translate(0,0)"/>
<path d="" fill="#453939" transform="translate(0,0)"/>
<path d="" fill="#7D4949" transform="translate(0,0)"/>
<path d="" fill="#453939" transform="translate(0,0)"/>
<path d="" fill="#453838" transform="translate(0,0)"/>
<path d="" fill="#433B3B" transform="translate(0,0)"/>
</svg>
